<mxfile host="app.diagrams.net" modified="2021-01-04T17:08:20.258Z" agent="5.0 (Windows NT 10.0; Win64; x64) AppleWebKit/537.36 (KHTML, like Gecko) Chrome/87.0.4280.88 Safari/537.36" etag="8ofeMWUxKhy4RgOGLgq_" version="14.1.8" type="github">
  <diagram id="C5RBs43oDa-KdzZeNtuy" name="Page-1">
    <mxGraphModel dx="1038" dy="620" grid="1" gridSize="10" guides="1" tooltips="1" connect="1" arrows="1" fold="1" page="1" pageScale="1" pageWidth="827" pageHeight="1169" math="0" shadow="0">
      <root>
        <mxCell id="WIyWlLk6GJQsqaUBKTNV-0" />
        <mxCell id="WIyWlLk6GJQsqaUBKTNV-1" parent="WIyWlLk6GJQsqaUBKTNV-0" />
        <mxCell id="WIyWlLk6GJQsqaUBKTNV-2" value="" style="rounded=0;html=1;jettySize=auto;orthogonalLoop=1;fontSize=11;endArrow=block;endFill=0;endSize=8;strokeWidth=1;shadow=0;labelBackgroundColor=none;edgeStyle=orthogonalEdgeStyle;" parent="WIyWlLk6GJQsqaUBKTNV-1" source="WIyWlLk6GJQsqaUBKTNV-3" edge="1">
          <mxGeometry relative="1" as="geometry">
            <mxPoint x="75" y="100" as="targetPoint" />
          </mxGeometry>
        </mxCell>
        <mxCell id="WIyWlLk6GJQsqaUBKTNV-3" value="서버켜짐" style="rounded=1;whiteSpace=wrap;html=1;fontSize=12;glass=0;strokeWidth=1;shadow=0;" parent="WIyWlLk6GJQsqaUBKTNV-1" vertex="1">
          <mxGeometry x="15" y="10" width="120" height="40" as="geometry" />
        </mxCell>
        <mxCell id="k8k3mxwGZvP8Mc64Pm2X-14" style="edgeStyle=orthogonalEdgeStyle;rounded=0;orthogonalLoop=1;jettySize=auto;html=1;entryX=0.5;entryY=0;entryDx=0;entryDy=0;endArrow=block;endFill=0;" edge="1" parent="WIyWlLk6GJQsqaUBKTNV-1" source="k8k3mxwGZvP8Mc64Pm2X-0" target="k8k3mxwGZvP8Mc64Pm2X-12">
          <mxGeometry relative="1" as="geometry" />
        </mxCell>
        <mxCell id="k8k3mxwGZvP8Mc64Pm2X-0" value="클라이언트 접속 대기" style="rounded=1;whiteSpace=wrap;html=1;fontSize=12;glass=0;strokeWidth=1;shadow=0;" vertex="1" parent="WIyWlLk6GJQsqaUBKTNV-1">
          <mxGeometry x="15" y="100" width="120" height="40" as="geometry" />
        </mxCell>
        <mxCell id="k8k3mxwGZvP8Mc64Pm2X-5" value="No" style="text;html=1;strokeColor=none;fillColor=none;align=center;verticalAlign=middle;whiteSpace=wrap;rounded=0;" vertex="1" parent="WIyWlLk6GJQsqaUBKTNV-1">
          <mxGeometry x="115" y="200" width="40" height="20" as="geometry" />
        </mxCell>
        <mxCell id="k8k3mxwGZvP8Mc64Pm2X-10" style="edgeStyle=orthogonalEdgeStyle;rounded=0;orthogonalLoop=1;jettySize=auto;html=1;entryX=0.5;entryY=0;entryDx=0;entryDy=0;endArrow=block;endFill=0;" edge="1" parent="WIyWlLk6GJQsqaUBKTNV-1" source="k8k3mxwGZvP8Mc64Pm2X-6" target="k8k3mxwGZvP8Mc64Pm2X-9">
          <mxGeometry relative="1" as="geometry" />
        </mxCell>
        <mxCell id="k8k3mxwGZvP8Mc64Pm2X-6" value="requestData 객체생성" style="rounded=1;whiteSpace=wrap;html=1;fontSize=12;glass=0;strokeWidth=1;shadow=0;" vertex="1" parent="WIyWlLk6GJQsqaUBKTNV-1">
          <mxGeometry x="15" y="280" width="130" height="40" as="geometry" />
        </mxCell>
        <mxCell id="k8k3mxwGZvP8Mc64Pm2X-8" value="Yes" style="text;html=1;strokeColor=none;fillColor=none;align=center;verticalAlign=middle;whiteSpace=wrap;rounded=0;" vertex="1" parent="WIyWlLk6GJQsqaUBKTNV-1">
          <mxGeometry x="75" y="250" width="40" height="20" as="geometry" />
        </mxCell>
        <mxCell id="k8k3mxwGZvP8Mc64Pm2X-20" style="edgeStyle=orthogonalEdgeStyle;rounded=0;orthogonalLoop=1;jettySize=auto;html=1;exitX=0.5;exitY=1;exitDx=0;exitDy=0;entryX=0.5;entryY=0;entryDx=0;entryDy=0;endArrow=block;endFill=0;" edge="1" parent="WIyWlLk6GJQsqaUBKTNV-1" source="k8k3mxwGZvP8Mc64Pm2X-9" target="k8k3mxwGZvP8Mc64Pm2X-18">
          <mxGeometry relative="1" as="geometry" />
        </mxCell>
        <mxCell id="k8k3mxwGZvP8Mc64Pm2X-9" value="httpClientMsg 객체생성" style="rounded=1;whiteSpace=wrap;html=1;fontSize=12;glass=0;strokeWidth=1;shadow=0;" vertex="1" parent="WIyWlLk6GJQsqaUBKTNV-1">
          <mxGeometry x="15" y="350" width="130" height="40" as="geometry" />
        </mxCell>
        <mxCell id="k8k3mxwGZvP8Mc64Pm2X-15" style="edgeStyle=orthogonalEdgeStyle;rounded=0;orthogonalLoop=1;jettySize=auto;html=1;entryX=0.5;entryY=0;entryDx=0;entryDy=0;endArrow=block;endFill=0;" edge="1" parent="WIyWlLk6GJQsqaUBKTNV-1" source="k8k3mxwGZvP8Mc64Pm2X-12" target="k8k3mxwGZvP8Mc64Pm2X-6">
          <mxGeometry relative="1" as="geometry" />
        </mxCell>
        <mxCell id="k8k3mxwGZvP8Mc64Pm2X-17" style="edgeStyle=orthogonalEdgeStyle;rounded=0;orthogonalLoop=1;jettySize=auto;html=1;endArrow=block;endFill=0;entryX=1;entryY=0.5;entryDx=0;entryDy=0;" edge="1" parent="WIyWlLk6GJQsqaUBKTNV-1" source="k8k3mxwGZvP8Mc64Pm2X-12" target="k8k3mxwGZvP8Mc64Pm2X-0">
          <mxGeometry relative="1" as="geometry">
            <mxPoint x="185" y="120" as="targetPoint" />
            <Array as="points">
              <mxPoint x="155" y="220" />
              <mxPoint x="155" y="120" />
            </Array>
          </mxGeometry>
        </mxCell>
        <mxCell id="k8k3mxwGZvP8Mc64Pm2X-12" value="클라이언트가&lt;br&gt;접속하였는가?" style="rhombus;whiteSpace=wrap;html=1;" vertex="1" parent="WIyWlLk6GJQsqaUBKTNV-1">
          <mxGeometry x="25" y="180" width="100" height="80" as="geometry" />
        </mxCell>
        <mxCell id="k8k3mxwGZvP8Mc64Pm2X-21" style="edgeStyle=orthogonalEdgeStyle;rounded=0;orthogonalLoop=1;jettySize=auto;html=1;exitX=0.5;exitY=1;exitDx=0;exitDy=0;entryX=0.5;entryY=0;entryDx=0;entryDy=0;endArrow=block;endFill=0;" edge="1" parent="WIyWlLk6GJQsqaUBKTNV-1" source="k8k3mxwGZvP8Mc64Pm2X-18" target="k8k3mxwGZvP8Mc64Pm2X-19">
          <mxGeometry relative="1" as="geometry" />
        </mxCell>
        <mxCell id="k8k3mxwGZvP8Mc64Pm2X-25" style="edgeStyle=orthogonalEdgeStyle;rounded=0;orthogonalLoop=1;jettySize=auto;html=1;endArrow=block;endFill=0;entryX=0;entryY=0.5;entryDx=0;entryDy=0;" edge="1" parent="WIyWlLk6GJQsqaUBKTNV-1" source="k8k3mxwGZvP8Mc64Pm2X-18" target="k8k3mxwGZvP8Mc64Pm2X-26">
          <mxGeometry relative="1" as="geometry">
            <mxPoint x="185" y="440" as="targetPoint" />
          </mxGeometry>
        </mxCell>
        <mxCell id="k8k3mxwGZvP8Mc64Pm2X-18" value="httpClientMsg.getRequ&lt;br&gt;estBuild() 실행" style="rounded=1;whiteSpace=wrap;html=1;fontSize=12;glass=0;strokeWidth=1;shadow=0;" vertex="1" parent="WIyWlLk6GJQsqaUBKTNV-1">
          <mxGeometry x="15" y="420" width="130" height="50" as="geometry" />
        </mxCell>
        <mxCell id="k8k3mxwGZvP8Mc64Pm2X-495" style="edgeStyle=orthogonalEdgeStyle;rounded=0;orthogonalLoop=1;jettySize=auto;html=1;entryX=0.088;entryY=0.578;entryDx=0;entryDy=0;entryPerimeter=0;endArrow=block;endFill=0;" edge="1" parent="WIyWlLk6GJQsqaUBKTNV-1" source="k8k3mxwGZvP8Mc64Pm2X-19" target="k8k3mxwGZvP8Mc64Pm2X-463">
          <mxGeometry relative="1" as="geometry" />
        </mxCell>
        <mxCell id="k8k3mxwGZvP8Mc64Pm2X-19" value="postRequestBuild() 실행" style="rounded=1;whiteSpace=wrap;html=1;fontSize=12;glass=0;strokeWidth=1;shadow=0;" vertex="1" parent="WIyWlLk6GJQsqaUBKTNV-1">
          <mxGeometry x="10" y="767.5" width="140" height="40" as="geometry" />
        </mxCell>
        <mxCell id="k8k3mxwGZvP8Mc64Pm2X-27" style="edgeStyle=orthogonalEdgeStyle;rounded=0;orthogonalLoop=1;jettySize=auto;html=1;endArrow=block;endFill=0;entryX=0;entryY=0.75;entryDx=0;entryDy=0;" edge="1" parent="WIyWlLk6GJQsqaUBKTNV-1" source="k8k3mxwGZvP8Mc64Pm2X-26" target="k8k3mxwGZvP8Mc64Pm2X-30">
          <mxGeometry relative="1" as="geometry">
            <mxPoint x="370" y="340" as="targetPoint" />
          </mxGeometry>
        </mxCell>
        <mxCell id="k8k3mxwGZvP8Mc64Pm2X-26" value="method ===&#39;GET&#39;" style="rhombus;whiteSpace=wrap;html=1;" vertex="1" parent="WIyWlLk6GJQsqaUBKTNV-1">
          <mxGeometry x="210" y="295" width="100" height="90" as="geometry" />
        </mxCell>
        <mxCell id="k8k3mxwGZvP8Mc64Pm2X-28" value="Yes" style="text;html=1;strokeColor=none;fillColor=none;align=center;verticalAlign=middle;whiteSpace=wrap;rounded=0;" vertex="1" parent="WIyWlLk6GJQsqaUBKTNV-1">
          <mxGeometry x="310" y="320" width="40" height="20" as="geometry" />
        </mxCell>
        <mxCell id="k8k3mxwGZvP8Mc64Pm2X-34" style="edgeStyle=orthogonalEdgeStyle;rounded=0;orthogonalLoop=1;jettySize=auto;html=1;exitX=0.5;exitY=1;exitDx=0;exitDy=0;endArrow=block;endFill=0;" edge="1" parent="WIyWlLk6GJQsqaUBKTNV-1" source="k8k3mxwGZvP8Mc64Pm2X-29">
          <mxGeometry relative="1" as="geometry">
            <mxPoint x="435" y="430" as="targetPoint" />
          </mxGeometry>
        </mxCell>
        <mxCell id="k8k3mxwGZvP8Mc64Pm2X-443" style="edgeStyle=orthogonalEdgeStyle;rounded=0;orthogonalLoop=1;jettySize=auto;html=1;exitX=1;exitY=0.5;exitDx=0;exitDy=0;entryX=0;entryY=0.5;entryDx=0;entryDy=0;endArrow=block;endFill=0;" edge="1" parent="WIyWlLk6GJQsqaUBKTNV-1" source="k8k3mxwGZvP8Mc64Pm2X-29" target="k8k3mxwGZvP8Mc64Pm2X-440">
          <mxGeometry relative="1" as="geometry" />
        </mxCell>
        <mxCell id="k8k3mxwGZvP8Mc64Pm2X-29" value="case /Profile" style="rhombus;whiteSpace=wrap;html=1;" vertex="1" parent="WIyWlLk6GJQsqaUBKTNV-1">
          <mxGeometry x="385" y="300" width="100" height="95" as="geometry" />
        </mxCell>
        <mxCell id="k8k3mxwGZvP8Mc64Pm2X-35" style="edgeStyle=orthogonalEdgeStyle;rounded=0;orthogonalLoop=1;jettySize=auto;html=1;exitX=0.5;exitY=1;exitDx=0;exitDy=0;entryX=0.5;entryY=0;entryDx=0;entryDy=0;endArrow=block;endFill=0;" edge="1" parent="WIyWlLk6GJQsqaUBKTNV-1" source="k8k3mxwGZvP8Mc64Pm2X-30" target="k8k3mxwGZvP8Mc64Pm2X-31">
          <mxGeometry relative="1" as="geometry" />
        </mxCell>
        <mxCell id="k8k3mxwGZvP8Mc64Pm2X-30" value="url" style="rounded=1;whiteSpace=wrap;html=1;fontSize=12;glass=0;strokeWidth=1;shadow=0;" vertex="1" parent="WIyWlLk6GJQsqaUBKTNV-1">
          <mxGeometry x="370" y="120" width="130" height="40" as="geometry" />
        </mxCell>
        <mxCell id="k8k3mxwGZvP8Mc64Pm2X-33" style="edgeStyle=orthogonalEdgeStyle;rounded=0;orthogonalLoop=1;jettySize=auto;html=1;exitX=0.5;exitY=1;exitDx=0;exitDy=0;entryX=0.5;entryY=0;entryDx=0;entryDy=0;endArrow=block;endFill=0;" edge="1" parent="WIyWlLk6GJQsqaUBKTNV-1" source="k8k3mxwGZvP8Mc64Pm2X-31" target="k8k3mxwGZvP8Mc64Pm2X-29">
          <mxGeometry relative="1" as="geometry" />
        </mxCell>
        <mxCell id="k8k3mxwGZvP8Mc64Pm2X-442" style="edgeStyle=orthogonalEdgeStyle;rounded=0;orthogonalLoop=1;jettySize=auto;html=1;entryX=0;entryY=0.5;entryDx=0;entryDy=0;endArrow=block;endFill=0;" edge="1" parent="WIyWlLk6GJQsqaUBKTNV-1" source="k8k3mxwGZvP8Mc64Pm2X-31" target="k8k3mxwGZvP8Mc64Pm2X-439">
          <mxGeometry relative="1" as="geometry" />
        </mxCell>
        <mxCell id="k8k3mxwGZvP8Mc64Pm2X-31" value="case /" style="rhombus;whiteSpace=wrap;html=1;" vertex="1" parent="WIyWlLk6GJQsqaUBKTNV-1">
          <mxGeometry x="385" y="180" width="100" height="95" as="geometry" />
        </mxCell>
        <mxCell id="k8k3mxwGZvP8Mc64Pm2X-444" style="edgeStyle=orthogonalEdgeStyle;rounded=0;orthogonalLoop=1;jettySize=auto;html=1;exitX=1;exitY=0.5;exitDx=0;exitDy=0;endArrow=block;endFill=0;" edge="1" parent="WIyWlLk6GJQsqaUBKTNV-1" source="k8k3mxwGZvP8Mc64Pm2X-32" target="k8k3mxwGZvP8Mc64Pm2X-441">
          <mxGeometry relative="1" as="geometry" />
        </mxCell>
        <mxCell id="k8k3mxwGZvP8Mc64Pm2X-32" value="default" style="rhombus;whiteSpace=wrap;html=1;" vertex="1" parent="WIyWlLk6GJQsqaUBKTNV-1">
          <mxGeometry x="385" y="430" width="100" height="95" as="geometry" />
        </mxCell>
        <mxCell id="k8k3mxwGZvP8Mc64Pm2X-436" value="false" style="text;html=1;strokeColor=none;fillColor=none;align=center;verticalAlign=middle;whiteSpace=wrap;rounded=0;" vertex="1" parent="WIyWlLk6GJQsqaUBKTNV-1">
          <mxGeometry x="445" y="275" width="40" height="20" as="geometry" />
        </mxCell>
        <mxCell id="k8k3mxwGZvP8Mc64Pm2X-437" value="false" style="text;html=1;strokeColor=none;fillColor=none;align=center;verticalAlign=middle;whiteSpace=wrap;rounded=0;" vertex="1" parent="WIyWlLk6GJQsqaUBKTNV-1">
          <mxGeometry x="445" y="395" width="40" height="20" as="geometry" />
        </mxCell>
        <mxCell id="k8k3mxwGZvP8Mc64Pm2X-452" style="edgeStyle=orthogonalEdgeStyle;rounded=0;orthogonalLoop=1;jettySize=auto;html=1;endArrow=block;endFill=0;" edge="1" parent="WIyWlLk6GJQsqaUBKTNV-1" source="k8k3mxwGZvP8Mc64Pm2X-439" target="k8k3mxwGZvP8Mc64Pm2X-448">
          <mxGeometry relative="1" as="geometry" />
        </mxCell>
        <mxCell id="k8k3mxwGZvP8Mc64Pm2X-439" value="httpResponceHeandler&lt;br&gt;.httpMainRespone()" style="rounded=1;whiteSpace=wrap;html=1;fontSize=12;glass=0;strokeWidth=1;shadow=0;" vertex="1" parent="WIyWlLk6GJQsqaUBKTNV-1">
          <mxGeometry x="510" y="207.5" width="130" height="40" as="geometry" />
        </mxCell>
        <mxCell id="k8k3mxwGZvP8Mc64Pm2X-460" style="edgeStyle=orthogonalEdgeStyle;rounded=0;orthogonalLoop=1;jettySize=auto;html=1;entryX=0;entryY=0.5;entryDx=0;entryDy=0;endArrow=block;endFill=0;" edge="1" parent="WIyWlLk6GJQsqaUBKTNV-1" source="k8k3mxwGZvP8Mc64Pm2X-440" target="k8k3mxwGZvP8Mc64Pm2X-455">
          <mxGeometry relative="1" as="geometry" />
        </mxCell>
        <mxCell id="k8k3mxwGZvP8Mc64Pm2X-440" value="httpResponceHeandler&lt;br&gt;.httpProfileRespone()" style="rounded=1;whiteSpace=wrap;html=1;fontSize=12;glass=0;strokeWidth=1;shadow=0;" vertex="1" parent="WIyWlLk6GJQsqaUBKTNV-1">
          <mxGeometry x="510" y="327.5" width="130" height="40" as="geometry" />
        </mxCell>
        <mxCell id="k8k3mxwGZvP8Mc64Pm2X-461" style="edgeStyle=orthogonalEdgeStyle;rounded=0;orthogonalLoop=1;jettySize=auto;html=1;exitX=1;exitY=0.5;exitDx=0;exitDy=0;entryX=0;entryY=0.5;entryDx=0;entryDy=0;endArrow=block;endFill=0;" edge="1" parent="WIyWlLk6GJQsqaUBKTNV-1" source="k8k3mxwGZvP8Mc64Pm2X-441" target="k8k3mxwGZvP8Mc64Pm2X-458">
          <mxGeometry relative="1" as="geometry" />
        </mxCell>
        <mxCell id="k8k3mxwGZvP8Mc64Pm2X-441" value="httpResponceHeandler&lt;br&gt;.httpErrorRespone()" style="rounded=1;whiteSpace=wrap;html=1;fontSize=12;glass=0;strokeWidth=1;shadow=0;" vertex="1" parent="WIyWlLk6GJQsqaUBKTNV-1">
          <mxGeometry x="510" y="457.5" width="130" height="40" as="geometry" />
        </mxCell>
        <mxCell id="k8k3mxwGZvP8Mc64Pm2X-445" value="true" style="text;html=1;strokeColor=none;fillColor=none;align=center;verticalAlign=middle;whiteSpace=wrap;rounded=0;" vertex="1" parent="WIyWlLk6GJQsqaUBKTNV-1">
          <mxGeometry x="470" y="200" width="40" height="20" as="geometry" />
        </mxCell>
        <mxCell id="k8k3mxwGZvP8Mc64Pm2X-446" value="true" style="text;html=1;strokeColor=none;fillColor=none;align=center;verticalAlign=middle;whiteSpace=wrap;rounded=0;" vertex="1" parent="WIyWlLk6GJQsqaUBKTNV-1">
          <mxGeometry x="470" y="320" width="40" height="20" as="geometry" />
        </mxCell>
        <mxCell id="k8k3mxwGZvP8Mc64Pm2X-447" value="true" style="text;html=1;strokeColor=none;fillColor=none;align=center;verticalAlign=middle;whiteSpace=wrap;rounded=0;" vertex="1" parent="WIyWlLk6GJQsqaUBKTNV-1">
          <mxGeometry x="470" y="450" width="40" height="20" as="geometry" />
        </mxCell>
        <mxCell id="k8k3mxwGZvP8Mc64Pm2X-453" style="edgeStyle=orthogonalEdgeStyle;rounded=0;orthogonalLoop=1;jettySize=auto;html=1;entryX=0;entryY=0.5;entryDx=0;entryDy=0;endArrow=block;endFill=0;" edge="1" parent="WIyWlLk6GJQsqaUBKTNV-1" source="k8k3mxwGZvP8Mc64Pm2X-448" target="k8k3mxwGZvP8Mc64Pm2X-449">
          <mxGeometry relative="1" as="geometry" />
        </mxCell>
        <mxCell id="k8k3mxwGZvP8Mc64Pm2X-448" value="seccuesMain&amp;nbsp;&lt;br&gt;객체생성" style="rounded=1;whiteSpace=wrap;html=1;fontSize=12;glass=0;strokeWidth=1;shadow=0;" vertex="1" parent="WIyWlLk6GJQsqaUBKTNV-1">
          <mxGeometry x="670" y="207.5" width="130" height="40" as="geometry" />
        </mxCell>
        <mxCell id="k8k3mxwGZvP8Mc64Pm2X-499" style="edgeStyle=orthogonalEdgeStyle;rounded=0;orthogonalLoop=1;jettySize=auto;html=1;endArrow=block;endFill=0;entryX=0;entryY=0.75;entryDx=0;entryDy=0;" edge="1" parent="WIyWlLk6GJQsqaUBKTNV-1" source="k8k3mxwGZvP8Mc64Pm2X-449" target="k8k3mxwGZvP8Mc64Pm2X-498">
          <mxGeometry relative="1" as="geometry">
            <mxPoint x="1030" y="440" as="targetPoint" />
          </mxGeometry>
        </mxCell>
        <mxCell id="k8k3mxwGZvP8Mc64Pm2X-449" value="socket.write()" style="rounded=1;whiteSpace=wrap;html=1;fontSize=12;glass=0;strokeWidth=1;shadow=0;" vertex="1" parent="WIyWlLk6GJQsqaUBKTNV-1">
          <mxGeometry x="820" y="207.5" width="130" height="40" as="geometry" />
        </mxCell>
        <mxCell id="k8k3mxwGZvP8Mc64Pm2X-454" style="edgeStyle=orthogonalEdgeStyle;rounded=0;orthogonalLoop=1;jettySize=auto;html=1;entryX=0;entryY=0.5;entryDx=0;entryDy=0;endArrow=block;endFill=0;" edge="1" parent="WIyWlLk6GJQsqaUBKTNV-1" source="k8k3mxwGZvP8Mc64Pm2X-455" target="k8k3mxwGZvP8Mc64Pm2X-456">
          <mxGeometry relative="1" as="geometry" />
        </mxCell>
        <mxCell id="k8k3mxwGZvP8Mc64Pm2X-455" value="seccuesProfile&amp;nbsp;&lt;br&gt;객체생성" style="rounded=1;whiteSpace=wrap;html=1;fontSize=12;glass=0;strokeWidth=1;shadow=0;" vertex="1" parent="WIyWlLk6GJQsqaUBKTNV-1">
          <mxGeometry x="680" y="327.5" width="130" height="40" as="geometry" />
        </mxCell>
        <mxCell id="k8k3mxwGZvP8Mc64Pm2X-502" style="edgeStyle=orthogonalEdgeStyle;rounded=0;orthogonalLoop=1;jettySize=auto;html=1;entryX=0.004;entryY=0.363;entryDx=0;entryDy=0;entryPerimeter=0;endArrow=block;endFill=0;" edge="1" parent="WIyWlLk6GJQsqaUBKTNV-1" source="k8k3mxwGZvP8Mc64Pm2X-456" target="k8k3mxwGZvP8Mc64Pm2X-498">
          <mxGeometry relative="1" as="geometry" />
        </mxCell>
        <mxCell id="k8k3mxwGZvP8Mc64Pm2X-456" value="socket.write()" style="rounded=1;whiteSpace=wrap;html=1;fontSize=12;glass=0;strokeWidth=1;shadow=0;" vertex="1" parent="WIyWlLk6GJQsqaUBKTNV-1">
          <mxGeometry x="830" y="327.5" width="130" height="40" as="geometry" />
        </mxCell>
        <mxCell id="k8k3mxwGZvP8Mc64Pm2X-457" style="edgeStyle=orthogonalEdgeStyle;rounded=0;orthogonalLoop=1;jettySize=auto;html=1;entryX=0;entryY=0.5;entryDx=0;entryDy=0;endArrow=block;endFill=0;" edge="1" parent="WIyWlLk6GJQsqaUBKTNV-1" source="k8k3mxwGZvP8Mc64Pm2X-458" target="k8k3mxwGZvP8Mc64Pm2X-459">
          <mxGeometry relative="1" as="geometry" />
        </mxCell>
        <mxCell id="k8k3mxwGZvP8Mc64Pm2X-458" value="error&lt;br&gt;객체생성" style="rounded=1;whiteSpace=wrap;html=1;fontSize=12;glass=0;strokeWidth=1;shadow=0;" vertex="1" parent="WIyWlLk6GJQsqaUBKTNV-1">
          <mxGeometry x="680" y="457.5" width="130" height="40" as="geometry" />
        </mxCell>
        <mxCell id="k8k3mxwGZvP8Mc64Pm2X-503" style="edgeStyle=orthogonalEdgeStyle;rounded=0;orthogonalLoop=1;jettySize=auto;html=1;entryX=0;entryY=0.5;entryDx=0;entryDy=0;endArrow=block;endFill=0;" edge="1" parent="WIyWlLk6GJQsqaUBKTNV-1" source="k8k3mxwGZvP8Mc64Pm2X-459" target="k8k3mxwGZvP8Mc64Pm2X-498">
          <mxGeometry relative="1" as="geometry" />
        </mxCell>
        <mxCell id="k8k3mxwGZvP8Mc64Pm2X-459" value="socket.write()" style="rounded=1;whiteSpace=wrap;html=1;fontSize=12;glass=0;strokeWidth=1;shadow=0;" vertex="1" parent="WIyWlLk6GJQsqaUBKTNV-1">
          <mxGeometry x="830" y="457.5" width="130" height="40" as="geometry" />
        </mxCell>
        <mxCell id="k8k3mxwGZvP8Mc64Pm2X-462" style="edgeStyle=orthogonalEdgeStyle;rounded=0;orthogonalLoop=1;jettySize=auto;html=1;endArrow=block;endFill=0;entryX=0;entryY=0.75;entryDx=0;entryDy=0;" edge="1" parent="WIyWlLk6GJQsqaUBKTNV-1" source="k8k3mxwGZvP8Mc64Pm2X-463" target="k8k3mxwGZvP8Mc64Pm2X-469">
          <mxGeometry relative="1" as="geometry">
            <mxPoint x="370" y="780" as="targetPoint" />
          </mxGeometry>
        </mxCell>
        <mxCell id="k8k3mxwGZvP8Mc64Pm2X-463" value="method ===&#39;POST&#39;" style="rhombus;whiteSpace=wrap;html=1;" vertex="1" parent="WIyWlLk6GJQsqaUBKTNV-1">
          <mxGeometry x="210" y="735" width="100" height="90" as="geometry" />
        </mxCell>
        <mxCell id="k8k3mxwGZvP8Mc64Pm2X-464" value="Yes" style="text;html=1;strokeColor=none;fillColor=none;align=center;verticalAlign=middle;whiteSpace=wrap;rounded=0;" vertex="1" parent="WIyWlLk6GJQsqaUBKTNV-1">
          <mxGeometry x="310" y="760" width="40" height="20" as="geometry" />
        </mxCell>
        <mxCell id="k8k3mxwGZvP8Mc64Pm2X-468" style="edgeStyle=orthogonalEdgeStyle;rounded=0;orthogonalLoop=1;jettySize=auto;html=1;exitX=0.5;exitY=1;exitDx=0;exitDy=0;entryX=0.5;entryY=0;entryDx=0;entryDy=0;endArrow=block;endFill=0;" edge="1" parent="WIyWlLk6GJQsqaUBKTNV-1" source="k8k3mxwGZvP8Mc64Pm2X-469" target="k8k3mxwGZvP8Mc64Pm2X-472">
          <mxGeometry relative="1" as="geometry" />
        </mxCell>
        <mxCell id="k8k3mxwGZvP8Mc64Pm2X-469" value="url" style="rounded=1;whiteSpace=wrap;html=1;fontSize=12;glass=0;strokeWidth=1;shadow=0;" vertex="1" parent="WIyWlLk6GJQsqaUBKTNV-1">
          <mxGeometry x="370" y="560" width="130" height="40" as="geometry" />
        </mxCell>
        <mxCell id="k8k3mxwGZvP8Mc64Pm2X-471" style="edgeStyle=orthogonalEdgeStyle;rounded=0;orthogonalLoop=1;jettySize=auto;html=1;entryX=0;entryY=0.5;entryDx=0;entryDy=0;endArrow=block;endFill=0;" edge="1" parent="WIyWlLk6GJQsqaUBKTNV-1" source="k8k3mxwGZvP8Mc64Pm2X-472" target="k8k3mxwGZvP8Mc64Pm2X-478">
          <mxGeometry relative="1" as="geometry" />
        </mxCell>
        <mxCell id="k8k3mxwGZvP8Mc64Pm2X-497" style="edgeStyle=orthogonalEdgeStyle;rounded=0;orthogonalLoop=1;jettySize=auto;html=1;exitX=0.5;exitY=1;exitDx=0;exitDy=0;entryX=0.5;entryY=0;entryDx=0;entryDy=0;endArrow=block;endFill=0;" edge="1" parent="WIyWlLk6GJQsqaUBKTNV-1" source="k8k3mxwGZvP8Mc64Pm2X-472" target="k8k3mxwGZvP8Mc64Pm2X-474">
          <mxGeometry relative="1" as="geometry" />
        </mxCell>
        <mxCell id="k8k3mxwGZvP8Mc64Pm2X-472" value="case /" style="rhombus;whiteSpace=wrap;html=1;" vertex="1" parent="WIyWlLk6GJQsqaUBKTNV-1">
          <mxGeometry x="385" y="620" width="100" height="95" as="geometry" />
        </mxCell>
        <mxCell id="k8k3mxwGZvP8Mc64Pm2X-473" style="edgeStyle=orthogonalEdgeStyle;rounded=0;orthogonalLoop=1;jettySize=auto;html=1;exitX=1;exitY=0.5;exitDx=0;exitDy=0;endArrow=block;endFill=0;" edge="1" parent="WIyWlLk6GJQsqaUBKTNV-1" source="k8k3mxwGZvP8Mc64Pm2X-474" target="k8k3mxwGZvP8Mc64Pm2X-482">
          <mxGeometry relative="1" as="geometry" />
        </mxCell>
        <mxCell id="k8k3mxwGZvP8Mc64Pm2X-474" value="default" style="rhombus;whiteSpace=wrap;html=1;" vertex="1" parent="WIyWlLk6GJQsqaUBKTNV-1">
          <mxGeometry x="385" y="750" width="100" height="95" as="geometry" />
        </mxCell>
        <mxCell id="k8k3mxwGZvP8Mc64Pm2X-475" value="false" style="text;html=1;strokeColor=none;fillColor=none;align=center;verticalAlign=middle;whiteSpace=wrap;rounded=0;" vertex="1" parent="WIyWlLk6GJQsqaUBKTNV-1">
          <mxGeometry x="445" y="715" width="40" height="20" as="geometry" />
        </mxCell>
        <mxCell id="k8k3mxwGZvP8Mc64Pm2X-477" style="edgeStyle=orthogonalEdgeStyle;rounded=0;orthogonalLoop=1;jettySize=auto;html=1;endArrow=block;endFill=0;" edge="1" parent="WIyWlLk6GJQsqaUBKTNV-1" source="k8k3mxwGZvP8Mc64Pm2X-478" target="k8k3mxwGZvP8Mc64Pm2X-487">
          <mxGeometry relative="1" as="geometry" />
        </mxCell>
        <mxCell id="k8k3mxwGZvP8Mc64Pm2X-478" value="httpResponceHeandler&lt;br&gt;.httpCalculatorRespone()" style="rounded=1;whiteSpace=wrap;html=1;fontSize=12;glass=0;strokeWidth=1;shadow=0;" vertex="1" parent="WIyWlLk6GJQsqaUBKTNV-1">
          <mxGeometry x="510" y="647.5" width="130" height="40" as="geometry" />
        </mxCell>
        <mxCell id="k8k3mxwGZvP8Mc64Pm2X-481" style="edgeStyle=orthogonalEdgeStyle;rounded=0;orthogonalLoop=1;jettySize=auto;html=1;exitX=1;exitY=0.5;exitDx=0;exitDy=0;entryX=0;entryY=0.5;entryDx=0;entryDy=0;endArrow=block;endFill=0;" edge="1" parent="WIyWlLk6GJQsqaUBKTNV-1" source="k8k3mxwGZvP8Mc64Pm2X-482" target="k8k3mxwGZvP8Mc64Pm2X-493">
          <mxGeometry relative="1" as="geometry" />
        </mxCell>
        <mxCell id="k8k3mxwGZvP8Mc64Pm2X-482" value="httpResponceHeandler&lt;br&gt;.httpErrorRespone()" style="rounded=1;whiteSpace=wrap;html=1;fontSize=12;glass=0;strokeWidth=1;shadow=0;" vertex="1" parent="WIyWlLk6GJQsqaUBKTNV-1">
          <mxGeometry x="510" y="767.5" width="130" height="40" as="geometry" />
        </mxCell>
        <mxCell id="k8k3mxwGZvP8Mc64Pm2X-483" value="true" style="text;html=1;strokeColor=none;fillColor=none;align=center;verticalAlign=middle;whiteSpace=wrap;rounded=0;" vertex="1" parent="WIyWlLk6GJQsqaUBKTNV-1">
          <mxGeometry x="470" y="640" width="40" height="20" as="geometry" />
        </mxCell>
        <mxCell id="k8k3mxwGZvP8Mc64Pm2X-485" value="true" style="text;html=1;strokeColor=none;fillColor=none;align=center;verticalAlign=middle;whiteSpace=wrap;rounded=0;" vertex="1" parent="WIyWlLk6GJQsqaUBKTNV-1">
          <mxGeometry x="470" y="760" width="40" height="20" as="geometry" />
        </mxCell>
        <mxCell id="k8k3mxwGZvP8Mc64Pm2X-486" style="edgeStyle=orthogonalEdgeStyle;rounded=0;orthogonalLoop=1;jettySize=auto;html=1;entryX=0;entryY=0.5;entryDx=0;entryDy=0;endArrow=block;endFill=0;" edge="1" parent="WIyWlLk6GJQsqaUBKTNV-1" source="k8k3mxwGZvP8Mc64Pm2X-487" target="k8k3mxwGZvP8Mc64Pm2X-488">
          <mxGeometry relative="1" as="geometry" />
        </mxCell>
        <mxCell id="k8k3mxwGZvP8Mc64Pm2X-487" value="seccuesCalculator&amp;nbsp;&lt;br&gt;객체생성" style="rounded=1;whiteSpace=wrap;html=1;fontSize=12;glass=0;strokeWidth=1;shadow=0;" vertex="1" parent="WIyWlLk6GJQsqaUBKTNV-1">
          <mxGeometry x="670" y="647.5" width="130" height="40" as="geometry" />
        </mxCell>
        <mxCell id="k8k3mxwGZvP8Mc64Pm2X-504" style="edgeStyle=orthogonalEdgeStyle;rounded=0;orthogonalLoop=1;jettySize=auto;html=1;entryX=0.004;entryY=0.64;entryDx=0;entryDy=0;entryPerimeter=0;endArrow=block;endFill=0;" edge="1" parent="WIyWlLk6GJQsqaUBKTNV-1" source="k8k3mxwGZvP8Mc64Pm2X-488" target="k8k3mxwGZvP8Mc64Pm2X-498">
          <mxGeometry relative="1" as="geometry" />
        </mxCell>
        <mxCell id="k8k3mxwGZvP8Mc64Pm2X-488" value="socket.write()" style="rounded=1;whiteSpace=wrap;html=1;fontSize=12;glass=0;strokeWidth=1;shadow=0;" vertex="1" parent="WIyWlLk6GJQsqaUBKTNV-1">
          <mxGeometry x="820" y="647.5" width="130" height="40" as="geometry" />
        </mxCell>
        <mxCell id="k8k3mxwGZvP8Mc64Pm2X-492" style="edgeStyle=orthogonalEdgeStyle;rounded=0;orthogonalLoop=1;jettySize=auto;html=1;entryX=0;entryY=0.5;entryDx=0;entryDy=0;endArrow=block;endFill=0;" edge="1" parent="WIyWlLk6GJQsqaUBKTNV-1" source="k8k3mxwGZvP8Mc64Pm2X-493" target="k8k3mxwGZvP8Mc64Pm2X-494">
          <mxGeometry relative="1" as="geometry" />
        </mxCell>
        <mxCell id="k8k3mxwGZvP8Mc64Pm2X-493" value="error&lt;br&gt;객체생성" style="rounded=1;whiteSpace=wrap;html=1;fontSize=12;glass=0;strokeWidth=1;shadow=0;" vertex="1" parent="WIyWlLk6GJQsqaUBKTNV-1">
          <mxGeometry x="680" y="767.5" width="130" height="40" as="geometry" />
        </mxCell>
        <mxCell id="k8k3mxwGZvP8Mc64Pm2X-505" style="edgeStyle=orthogonalEdgeStyle;rounded=0;orthogonalLoop=1;jettySize=auto;html=1;entryX=0.004;entryY=0.896;entryDx=0;entryDy=0;entryPerimeter=0;endArrow=block;endFill=0;" edge="1" parent="WIyWlLk6GJQsqaUBKTNV-1" source="k8k3mxwGZvP8Mc64Pm2X-494" target="k8k3mxwGZvP8Mc64Pm2X-498">
          <mxGeometry relative="1" as="geometry" />
        </mxCell>
        <mxCell id="k8k3mxwGZvP8Mc64Pm2X-494" value="socket.write()" style="rounded=1;whiteSpace=wrap;html=1;fontSize=12;glass=0;strokeWidth=1;shadow=0;" vertex="1" parent="WIyWlLk6GJQsqaUBKTNV-1">
          <mxGeometry x="830" y="767.5" width="130" height="40" as="geometry" />
        </mxCell>
        <mxCell id="k8k3mxwGZvP8Mc64Pm2X-507" style="edgeStyle=orthogonalEdgeStyle;rounded=0;orthogonalLoop=1;jettySize=auto;html=1;endArrow=block;endFill=0;" edge="1" parent="WIyWlLk6GJQsqaUBKTNV-1" source="k8k3mxwGZvP8Mc64Pm2X-498" target="k8k3mxwGZvP8Mc64Pm2X-506">
          <mxGeometry relative="1" as="geometry" />
        </mxCell>
        <mxCell id="k8k3mxwGZvP8Mc64Pm2X-498" value="클라 요청에 대한 &lt;br&gt;응답전송" style="rounded=1;whiteSpace=wrap;html=1;" vertex="1" parent="WIyWlLk6GJQsqaUBKTNV-1">
          <mxGeometry x="1080" y="395" width="110" height="75" as="geometry" />
        </mxCell>
        <mxCell id="k8k3mxwGZvP8Mc64Pm2X-506" value="클라 접속 종료" style="rounded=1;whiteSpace=wrap;html=1;" vertex="1" parent="WIyWlLk6GJQsqaUBKTNV-1">
          <mxGeometry x="1230" y="395" width="110" height="75" as="geometry" />
        </mxCell>
      </root>
    </mxGraphModel>
  </diagram>
</mxfile>
